<svg width="90" height="92" viewBox="0 0 90 92" fill="none" xmlns="http://www.w3.org/2000/svg">
<path d="M45.1737 68.9311C45.1737 68.9311 45.2903 68.9311 45.5236 68.9311C45.7568 68.9311 46.0484 69.1061 46.3983 69.456C46.7482 69.8059 46.9232 70.2141 46.9232 70.6807C46.9232 71.1472 46.7482 71.5554 46.3983 71.9053C46.0484 72.2552 45.6402 72.4302 45.1737 72.4302C44.7071 72.4302 44.2989 72.2552 43.949 71.9053C43.5991 71.5554 43.4241 71.1472 43.4241 70.6807C43.4241 70.2141 43.5991 69.8059 43.949 69.456C44.2989 69.1061 44.7071 68.9311 45.1737 68.9311ZM88.0369 68.9311C89.2033 68.9311 89.7865 69.5143 89.7865 70.6807V75.5793C89.7865 76.9789 89.2616 78.2036 88.2119 79.2533C87.1622 80.303 85.9375 80.8279 84.5379 80.8279H5.4595C4.05989 80.8279 2.83522 80.303 1.78551 79.2533C0.735794 78.2036 0.210938 76.9789 0.210938 75.5793V70.6807C0.210938 69.5143 0.794112 68.9311 1.96046 68.9311H4.05989V20.6443C4.05989 18.0784 4.93465 15.9206 6.68417 14.1711C8.43369 12.4216 10.5914 11.5468 13.1574 11.5468H76.84C79.406 11.5468 81.5637 12.4216 83.3132 14.1711C85.0628 15.9206 85.9375 18.0784 85.9375 20.6443V68.9311H88.0369ZM7.55893 20.6443V68.9311H10.3582V19.5946C10.3582 18.4283 10.9413 17.8451 12.1077 17.8451H77.8897C79.0561 17.8451 79.6392 18.4283 79.6392 19.5946V68.9311H82.4385V20.6443C82.4385 19.1281 81.8845 17.8159 80.7764 16.7079C79.6684 15.5999 78.3563 15.0459 76.84 15.0459H13.1574C11.6411 15.0459 10.329 15.5999 9.22098 16.7079C8.11295 17.8159 7.55893 19.1281 7.55893 20.6443ZM86.2874 75.5793V72.4302H52.1717C51.0054 72.4302 50.4222 71.847 50.4222 70.6807C50.4222 69.5143 51.0054 68.9311 52.1717 68.9311H76.1402V21.3441H13.8572V68.9311H37.8257C38.992 68.9311 39.5752 69.5143 39.5752 70.6807C39.5752 71.847 38.992 72.4302 37.8257 72.4302H3.70998V75.5793C3.70998 76.7457 4.29316 77.3288 5.4595 77.3288H84.5379C85.7043 77.3288 86.2874 76.7457 86.2874 75.5793ZM73.166 40.4139C74.2157 43.5631 74.3907 46.7705 73.6909 50.0363C72.8744 53.3021 71.2999 56.1596 68.9672 58.6089C65.4681 61.9914 61.3276 63.6826 56.5455 63.6826C51.7635 63.6826 47.623 61.9914 44.1239 58.6089C43.0742 57.4426 42.1412 56.2179 41.3247 54.935H37.4758L31.1775 61.2332C30.8276 61.5831 30.4194 61.7581 29.9528 61.7581H26.4538C25.6373 64.0908 24.0044 65.2571 21.5551 65.2571C20.0389 65.2571 18.785 64.7323 17.7936 63.6826C16.8022 62.6329 16.3065 61.4082 16.3065 60.0086C16.3065 58.6089 16.8022 57.3843 17.7936 56.3346C18.785 55.2849 20.0389 54.76 21.5551 54.76C24.0044 54.76 25.6373 55.9263 26.4538 58.259H29.253L35.5513 51.9608C35.9012 51.6109 36.3094 51.4359 36.7759 51.4359H39.9251C39.5752 50.2696 39.3419 49.1032 39.2253 47.9369H33.4519C32.6354 50.2696 31.0025 51.4359 28.5532 51.4359C27.0369 51.4359 25.7831 50.9111 24.7917 49.8613C23.8003 48.8116 23.3046 47.587 23.3046 46.1873C23.3046 44.7877 23.8003 43.5631 24.7917 42.5133C25.7831 41.4636 27.0369 40.9388 28.5532 40.9388C31.0025 40.9388 32.6354 42.1051 33.4519 44.4378H39.2253C39.3419 43.1548 39.5752 41.9302 39.9251 40.7638H36.7759C36.3094 40.7638 35.9012 40.5889 35.5513 40.239L29.253 33.9407H26.4538C25.6373 36.2734 24.0044 37.4397 21.5551 37.4397C20.0389 37.4397 18.785 36.9149 17.7936 35.8652C16.8022 34.8154 16.3065 33.5908 16.3065 32.1912C16.3065 30.7915 16.8022 29.5669 17.7936 28.5172C18.785 27.4675 20.0389 26.9426 21.5551 26.9426C24.0044 26.9426 25.6373 28.1089 26.4538 30.4416H29.9528C30.4194 30.4416 30.8276 30.6166 31.1775 30.9665L37.4758 37.2648H41.4997C42.1995 35.9818 43.0742 34.8154 44.1239 33.7657C46.5733 31.433 49.4308 29.8585 52.6966 29.042C55.9624 28.3422 59.1698 28.5172 62.319 29.5669C63.3687 30.0334 63.7186 30.8207 63.3687 31.9287C63.0188 33.0368 62.2607 33.3575 61.0943 32.891C58.5283 32.0745 55.9624 31.9579 53.3964 32.5411C50.8304 33.1242 48.5561 34.3489 46.5733 36.2151C43.8907 39.0143 42.5494 42.3384 42.5494 46.1873C42.5494 50.0363 43.9198 53.3312 46.6607 56.0721C49.4017 58.8131 52.6966 60.1835 56.5455 60.1835C60.3945 60.1835 63.7186 58.8422 66.5178 56.1596C68.384 54.1768 69.6086 51.9024 70.1918 49.3365C70.775 46.7705 70.6584 44.2046 69.8419 41.6386C69.3754 40.4722 69.6961 39.7141 70.8042 39.3642C71.9122 39.0143 72.6995 39.3642 73.166 40.4139ZM19.8056 32.1912C19.8056 32.1912 19.8056 32.4828 19.8056 33.0659C19.8056 33.6491 20.3888 33.9407 21.5551 33.9407C22.7215 33.9407 23.3046 33.3575 23.3046 32.1912C23.3046 31.0248 22.7215 30.4416 21.5551 30.4416C20.3888 30.4416 19.8056 31.0248 19.8056 32.1912ZM26.8037 46.1873C26.8037 46.1873 26.8037 46.4789 26.8037 47.0621C26.8037 47.6453 27.3868 47.9369 28.5532 47.9369C29.7195 47.9369 30.3027 47.3537 30.3027 46.1873C30.3027 45.021 29.7195 44.4378 28.5532 44.4378C27.3868 44.4378 26.8037 45.021 26.8037 46.1873ZM19.8056 60.0086C19.8056 60.0086 19.8056 60.3002 19.8056 60.8833C19.8056 61.4665 20.3888 61.7581 21.5551 61.7581C22.7215 61.7581 23.3046 61.1749 23.3046 60.0086C23.3046 58.8422 22.7215 58.259 21.5551 58.259C20.3888 58.259 19.8056 58.8422 19.8056 60.0086ZM66.5178 33.7657C66.5178 33.7657 66.7219 33.5616 67.1302 33.1534C67.5384 32.7452 68.1507 32.9493 68.9672 33.7657C69.7836 34.5822 69.7836 35.3986 68.9672 36.2151C68.6172 36.565 68.209 36.7399 67.7425 36.7399C67.276 36.7399 66.8677 36.565 66.5178 36.2151C65.7014 35.3986 65.7014 34.5822 66.5178 33.7657Z" fill="url(#paint0_linear_80_162)"/>
<defs>
<linearGradient id="paint0_linear_80_162" x1="-3.60902" y1="21.0088" x2="74.1587" y2="73.1874" gradientUnits="userSpaceOnUse">
<stop offset="0.04" stop-color="#FBB040"/>
<stop offset="0.13" stop-color="#FBB040"/>
<stop offset="0.7" stop-color="#FFF200"/>
</linearGradient>
</defs>
</svg>
