<svg width="90" height="92" viewBox="0 0 90 92" fill="none" xmlns="http://www.w3.org/2000/svg">
<path d="M68.7922 71.7304C68.7922 72.8967 68.4423 73.9464 67.7425 74.8795C68.4423 75.8126 68.7922 76.8623 68.7922 78.0286C68.7922 79.7782 68.0341 81.1778 66.5178 82.2275V83.4522C66.5178 84.6185 65.9347 85.2017 64.7683 85.2017C63.602 85.2017 63.0188 84.6185 63.0188 83.4522V82.9273H62.144V83.4522C62.144 84.6185 61.5608 85.2017 60.3945 85.2017C59.2281 85.2017 58.645 84.6185 58.645 83.4522V82.9273H57.5953C56.4289 82.9273 55.8457 82.3441 55.8457 81.1778C55.8457 80.0114 56.4289 79.4283 57.5953 79.4283H57.9452V70.3307H57.5953C56.4289 70.3307 55.8457 69.7476 55.8457 68.5812C55.8457 67.4149 56.4289 66.8317 57.5953 66.8317H58.645V66.3068C58.645 65.1405 59.2281 64.5573 60.3945 64.5573C61.5608 64.5573 62.144 65.1405 62.144 66.3068V66.8317H63.0188V66.3068C63.0188 65.1405 63.602 64.5573 64.7683 64.5573C65.9347 64.5573 66.5178 65.1405 66.5178 66.3068V67.5315C68.0341 68.5812 68.7922 69.9808 68.7922 71.7304ZM63.8935 79.4283C64.8266 79.4283 65.2932 78.9617 65.2932 78.0286C65.2932 77.0956 64.8266 76.629 63.8935 76.629H61.4442V79.4283H63.8935ZM63.8935 73.13C64.8266 73.13 65.2932 72.6634 65.2932 71.7304C65.2932 70.7973 64.8266 70.3307 63.8935 70.3307H61.4442V73.13H63.8935ZM44.9987 60.5334C44.9987 60.5334 45.1153 60.5334 45.3486 60.5334C45.5819 60.5334 45.8735 60.7084 46.2234 61.0583C46.5733 61.4082 46.7482 61.8164 46.7482 62.2829C46.7482 62.7495 46.5733 63.1577 46.2234 63.5076C45.8735 63.8575 45.4652 64.0325 44.9987 64.0325C44.5322 64.0325 44.1239 63.8575 43.774 63.5076C43.4241 63.1577 43.2492 62.7495 43.2492 62.2829C43.2492 61.8164 43.4241 61.4082 43.774 61.0583C44.1239 60.7084 44.5322 60.5334 44.9987 60.5334ZM88.0369 87.4761C89.2033 87.4761 89.7865 88.0592 89.7865 89.2256C89.7865 90.3919 89.2033 90.9751 88.0369 90.9751H1.96046C0.794112 90.9751 0.210938 90.3919 0.210938 89.2256C0.210938 88.0592 0.794112 87.4761 1.96046 87.4761H9.65836V69.6309C9.65836 66.1319 10.7664 63.0119 12.9824 60.271C15.1985 57.5301 18.0561 55.8097 21.5551 55.1099L24.5293 54.585C25.4624 54.3518 25.9289 53.7686 25.9289 52.8355V40.9388C25.9289 40.239 26.2788 39.7141 26.9786 39.3642C27.2119 39.2476 27.5035 39.1892 27.8534 39.1892V30.6166H24.1794C23.3629 30.6166 22.634 30.4708 21.9925 30.1792C21.351 29.8876 20.7678 29.4794 20.243 28.9545C19.7181 28.4297 19.3099 27.8465 19.0183 27.205C18.7267 26.5635 18.5809 25.8346 18.5809 25.0181C18.5809 23.5019 19.1349 22.2189 20.243 21.1692C21.351 20.1195 22.6631 19.5946 24.1794 19.5946H26.4538V9.09747C26.4538 6.06496 27.7951 3.81974 30.4777 2.3618C33.1603 0.90387 35.7846 0.991348 38.3505 2.62423L42.7243 5.59842C44.2406 6.64813 45.7568 6.64813 47.2731 5.59842L51.6469 2.62423C54.2129 0.991348 56.8371 0.90387 59.5197 2.3618C62.2023 3.81974 63.5436 6.06496 63.5436 9.09747V19.5946H65.818C67.3343 19.5946 68.6464 20.1195 69.7544 21.1692C70.8625 22.2189 71.4165 23.5019 71.4165 25.0181C71.4165 26.5344 70.8625 27.8465 69.7544 28.9545C68.6464 30.0626 67.3343 30.6166 65.818 30.6166H62.144V39.1892C62.4939 39.1892 62.7855 39.2476 63.0188 39.3642C63.7186 39.7141 64.0685 40.239 64.0685 40.9388V52.8355C64.0685 53.7686 64.535 54.3518 65.4681 54.585C69.7836 55.4015 73.341 57.5009 76.1402 60.8833C78.9394 64.2657 80.3391 68.173 80.3391 72.6051V87.4761H88.0369ZM29.9528 17.4952V19.5946H60.0446V9.09747C60.0446 7.46458 59.3156 6.23991 57.8577 5.42347C56.3998 4.60703 54.971 4.66534 53.5714 5.59842L49.1976 8.57261C46.3983 10.4388 43.5991 10.4388 40.7999 8.57261L36.426 5.59842C35.0264 4.66534 33.5977 4.60703 32.1397 5.42347C30.6818 6.23991 29.9528 7.46458 29.9528 9.09747V13.9961H43.0742C44.2406 13.9961 44.8237 14.5793 44.8237 15.7457C44.8237 16.912 44.2406 17.4952 43.0742 17.4952H29.9528ZM24.1794 27.1175H65.818C66.4012 27.1175 66.8969 26.9134 67.3051 26.5052C67.7133 26.097 67.9174 25.6304 67.9174 25.1056C67.9174 24.5807 67.7133 24.1142 67.3051 23.706C66.8969 23.2978 66.4012 23.0936 65.818 23.0936H24.1794C23.5962 23.0936 23.1005 23.2978 22.6923 23.706C22.2841 24.1142 22.08 24.5516 22.08 25.0181C22.08 25.4847 22.1674 25.8637 22.3424 26.1553C22.5173 26.4469 22.7798 26.6802 23.1297 26.8551C23.4796 27.0301 23.8295 27.1175 24.1794 27.1175ZM43.949 30.6166L35.3763 39.1892H41.4997L43.774 36.9149C44.5905 36.0984 45.4069 36.0984 46.2234 36.9149L47.9729 38.8393L56.1956 30.6166H43.949ZM31.3524 38.3145L39.0503 30.6166H31.3524V38.3145ZM42.1995 42.6883H32.5771L44.9987 53.1854L57.4203 42.6883H47.623C47.1564 42.6883 46.7482 42.5133 46.3983 42.1634L44.9987 40.7638L43.4241 42.1634C43.0742 42.5133 42.666 42.6883 42.1995 42.6883ZM52.6966 39.1892H58.645V33.2409L52.6966 39.1892ZM46.7482 87.4761H76.84V72.6051C76.84 70.2724 76.3151 68.0855 75.2654 66.0444C74.2157 64.0033 72.7869 62.2829 70.9791 60.8833C69.1713 59.4837 67.1593 58.5506 64.9433 58.0841C64.3601 57.9674 63.8352 57.7925 63.3687 57.5592L55.8457 65.0822C55.4958 65.4321 55.0876 65.607 54.6211 65.607C54.1545 65.607 53.7463 65.4321 53.3964 65.0822C52.58 64.2657 52.58 63.4493 53.3964 62.6328L61.0943 54.9349C60.7444 54.2351 60.5695 53.5353 60.5695 52.8355V44.6128L46.0484 56.8594C45.3486 57.4426 44.6488 57.4426 43.949 56.8594L29.428 44.6128V52.8355C29.428 53.652 29.1947 54.4684 28.7281 55.2848L35.5513 62.108C36.3677 62.9244 36.3677 63.7409 35.5513 64.5573C35.2014 64.9072 34.7932 65.0822 34.3266 65.0822C33.8601 65.0822 33.4519 64.9072 33.102 64.5573L26.2788 57.7342C25.9289 57.8508 25.5207 57.9674 25.0542 58.0841L22.2549 58.6089C19.5723 59.0755 17.3854 60.3585 15.6942 62.4579C14.003 64.5573 13.1574 66.9483 13.1574 69.6309V87.4761H43.2492V69.281C43.2492 68.1147 43.8324 67.5315 44.9987 67.5315C46.1651 67.5315 46.7482 68.1147 46.7482 69.281V87.4761ZM49.46 13.9961C49.46 13.9961 49.5912 13.9961 49.8536 13.9961C50.1161 13.9961 50.3931 14.1711 50.6847 14.521C50.9762 14.8709 51.122 15.2791 51.122 15.7457C51.122 16.2122 50.9762 16.6204 50.6847 16.9703C50.3931 17.3202 49.9848 17.4952 49.46 17.4952C48.9351 17.4952 48.4977 17.3202 48.1478 16.9703C47.7979 16.6204 47.623 16.2122 47.623 15.7457C47.623 15.2791 47.7979 14.8709 48.1478 14.521C48.4977 14.1711 48.9351 13.9961 49.46 13.9961Z" fill="url(#paint0_linear_80_170)"/>
<defs>
<linearGradient id="paint0_linear_80_170" x1="-3.60902" y1="13.5734" x2="85.27" y2="59.6608" gradientUnits="userSpaceOnUse">
<stop offset="0.04" stop-color="#FBB040"/>
<stop offset="0.13" stop-color="#FBB040"/>
<stop offset="0.7" stop-color="#FFF200"/>
</linearGradient>
</defs>
</svg>
