<svg width="48" height="48" viewBox="0 0 48 48" fill="none" xmlns="http://www.w3.org/2000/svg">
<rect width="48" height="48" rx="24" fill="#F4F4F4"/>
<path d="M15.4671 23.02C15.4671 20.7133 15.8538 18.9133 16.6271 17.62C17.4138 16.3133 18.7605 15.66 20.6671 15.66C22.5738 15.66 23.9138 16.3133 24.6871 17.62C25.4738 18.9133 25.8671 20.7133 25.8671 23.02C25.8671 25.3533 25.4738 27.18 24.6871 28.5C23.9138 29.8067 22.5738 30.46 20.6671 30.46C18.7605 30.46 17.4138 29.8067 16.6271 28.5C15.8538 27.18 15.4671 25.3533 15.4671 23.02ZM23.6271 23.02C23.6271 21.94 23.5538 21.0267 23.4071 20.28C23.2738 19.5333 22.9938 18.9267 22.5671 18.46C22.1405 17.98 21.5071 17.74 20.6671 17.74C19.8271 17.74 19.1938 17.98 18.7671 18.46C18.3405 18.9267 18.0538 19.5333 17.9071 20.28C17.7738 21.0267 17.7071 21.94 17.7071 23.02C17.7071 24.14 17.7738 25.08 17.9071 25.84C18.0405 26.6 18.3205 27.2133 18.7471 27.68C19.1871 28.1467 19.8271 28.38 20.6671 28.38C21.5071 28.38 22.1405 28.1467 22.5671 27.68C23.0071 27.2133 23.2938 26.6 23.4271 25.84C23.5605 25.08 23.6271 24.14 23.6271 23.02ZM27.9796 18V15.92H32.1396V30.5H29.8396V18H27.9796Z" fill="#6E6E6E"/>
</svg>
