<svg width="48" height="48" viewBox="0 0 48 48" fill="none" xmlns="http://www.w3.org/2000/svg">
<rect width="48" height="48" rx="24" fill="url(#paint0_linear_684_281)"/>
<path d="M13.0223 23.52C13.0223 21.2133 13.4089 19.4133 14.1823 18.12C14.9689 16.8133 16.3156 16.16 18.2223 16.16C20.1289 16.16 21.4689 16.8133 22.2423 18.12C23.0289 19.4133 23.4223 21.2133 23.4223 23.52C23.4223 25.8533 23.0289 27.68 22.2423 29C21.4689 30.3067 20.1289 30.96 18.2223 30.96C16.3156 30.96 14.9689 30.3067 14.1823 29C13.4089 27.68 13.0223 25.8533 13.0223 23.52ZM21.1823 23.52C21.1823 22.44 21.1089 21.5267 20.9623 20.78C20.8289 20.0333 20.5489 19.4267 20.1223 18.96C19.6956 18.48 19.0623 18.24 18.2223 18.24C17.3823 18.24 16.7489 18.48 16.3223 18.96C15.8956 19.4267 15.6089 20.0333 15.4623 20.78C15.3289 21.5267 15.2623 22.44 15.2623 23.52C15.2623 24.64 15.3289 25.58 15.4623 26.34C15.5956 27.1 15.8756 27.7133 16.3023 28.18C16.7423 28.6467 17.3823 28.88 18.2223 28.88C19.0623 28.88 19.6956 28.6467 20.1223 28.18C20.5623 27.7133 20.8489 27.1 20.9823 26.34C21.1156 25.58 21.1823 24.64 21.1823 23.52ZM27.0948 27.9C28.3748 26.7933 29.3814 25.8867 30.1148 25.18C30.8614 24.46 31.4814 23.7133 31.9748 22.94C32.4681 22.1667 32.7148 21.3933 32.7148 20.62C32.7148 19.82 32.5214 19.1933 32.1348 18.74C31.7614 18.2867 31.1681 18.06 30.3548 18.06C29.5681 18.06 28.9548 18.3133 28.5148 18.82C28.0881 19.3133 27.8614 19.98 27.8348 20.82H25.6348C25.6748 19.3 26.1281 18.14 26.9948 17.34C27.8748 16.5267 28.9881 16.12 30.3348 16.12C31.7881 16.12 32.9214 16.52 33.7348 17.32C34.5614 18.12 34.9748 19.1867 34.9748 20.52C34.9748 21.48 34.7281 22.4067 34.2348 23.3C33.7548 24.18 33.1748 24.9733 32.4948 25.68C31.8281 26.3733 30.9748 27.18 29.9348 28.1L29.0348 28.9H35.3748V30.8H25.6548V29.14L27.0948 27.9Z" fill="white"/>
<defs>
<linearGradient id="paint0_linear_684_281" x1="-2.04696" y1="41.4445" x2="45.5642" y2="16.737" gradientUnits="userSpaceOnUse">
<stop offset="0.04" stop-color="#FBB040"/>
<stop offset="0.13" stop-color="#FBB040"/>
<stop offset="0.7" stop-color="#FFF200"/>
</linearGradient>
</defs>
</svg>
