<svg width="48" height="48" viewBox="0 0 48 48" fill="none" xmlns="http://www.w3.org/2000/svg">
<rect width="48" height="48" rx="24" fill="url(#paint0_linear_684_283)"/>
<path d="M12.8563 23.52C12.8563 21.2133 13.2429 19.4133 14.0163 18.12C14.8029 16.8133 16.1496 16.16 18.0563 16.16C19.9629 16.16 21.3029 16.8133 22.0763 18.12C22.8629 19.4133 23.2563 21.2133 23.2563 23.52C23.2563 25.8533 22.8629 27.68 22.0763 29C21.3029 30.3067 19.9629 30.96 18.0563 30.96C16.1496 30.96 14.8029 30.3067 14.0163 29C13.2429 27.68 12.8563 25.8533 12.8563 23.52ZM21.0163 23.52C21.0163 22.44 20.9429 21.5267 20.7963 20.78C20.6629 20.0333 20.3829 19.4267 19.9563 18.96C19.5296 18.48 18.8963 18.24 18.0563 18.24C17.2163 18.24 16.5829 18.48 16.1563 18.96C15.7296 19.4267 15.4429 20.0333 15.2963 20.78C15.1629 21.5267 15.0963 22.44 15.0963 23.52C15.0963 24.64 15.1629 25.58 15.2963 26.34C15.4296 27.1 15.7096 27.7133 16.1363 28.18C16.5763 28.6467 17.2163 28.88 18.0563 28.88C18.8963 28.88 19.5296 28.6467 19.9563 28.18C20.3963 27.7133 20.6829 27.1 20.8163 26.34C20.9496 25.58 21.0163 24.64 21.0163 23.52ZM25.6288 20.02C25.7088 18.78 26.1821 17.8133 27.0488 17.12C27.9288 16.4267 29.0488 16.08 30.4088 16.08C31.3421 16.08 32.1488 16.2467 32.8288 16.58C33.5088 16.9133 34.0221 17.3667 34.3688 17.94C34.7154 18.5133 34.8888 19.16 34.8888 19.88C34.8888 20.7067 34.6688 21.4133 34.2288 22C33.7888 22.5867 33.2621 22.98 32.6488 23.18V23.26C33.4354 23.5 34.0488 23.94 34.4888 24.58C34.9288 25.2067 35.1488 26.0133 35.1488 27C35.1488 27.7867 34.9688 28.4867 34.6088 29.1C34.2488 29.7133 33.7154 30.2 33.0088 30.56C32.3021 30.9067 31.4554 31.08 30.4688 31.08C29.0288 31.08 27.8421 30.7133 26.9088 29.98C25.9888 29.2333 25.4954 28.1667 25.4288 26.78H27.6288C27.6821 27.4867 27.9554 28.0667 28.4488 28.52C28.9421 28.96 29.6088 29.18 30.4488 29.18C31.2621 29.18 31.8888 28.96 32.3288 28.52C32.7688 28.0667 32.9888 27.4867 32.9888 26.78C32.9888 25.8467 32.6888 25.1867 32.0888 24.8C31.5021 24.4 30.5954 24.2 29.3688 24.2H28.8488V22.32H29.3888C30.4688 22.3067 31.2888 22.1267 31.8488 21.78C32.4221 21.4333 32.7088 20.8867 32.7088 20.14C32.7088 19.5 32.5021 18.9933 32.0888 18.62C31.6754 18.2333 31.0888 18.04 30.3288 18.04C29.5821 18.04 29.0021 18.2333 28.5888 18.62C28.1754 18.9933 27.9288 19.46 27.8488 20.02H25.6288Z" fill="white"/>
<defs>
<linearGradient id="paint0_linear_684_283" x1="-2.04696" y1="41.4445" x2="45.5642" y2="16.737" gradientUnits="userSpaceOnUse">
<stop offset="0.04" stop-color="#FBB040"/>
<stop offset="0.13" stop-color="#FBB040"/>
<stop offset="0.7" stop-color="#FFF200"/>
</linearGradient>
</defs>
</svg>
