<svg width="48" height="48" viewBox="0 0 48 48" fill="none" xmlns="http://www.w3.org/2000/svg">
<rect width="48" height="48" rx="24" fill="url(#paint0_linear_684_285)"/>
<path d="M12.3191 23.52C12.3191 21.2133 12.7058 19.4133 13.4791 18.12C14.2658 16.8133 15.6125 16.16 17.5191 16.16C19.4258 16.16 20.7658 16.8133 21.5391 18.12C22.3258 19.4133 22.7191 21.2133 22.7191 23.52C22.7191 25.8533 22.3258 27.68 21.5391 29C20.7658 30.3067 19.4258 30.96 17.5191 30.96C15.6125 30.96 14.2658 30.3067 13.4791 29C12.7058 27.68 12.3191 25.8533 12.3191 23.52ZM20.4791 23.52C20.4791 22.44 20.4058 21.5267 20.2591 20.78C20.1258 20.0333 19.8458 19.4267 19.4191 18.96C18.9925 18.48 18.3591 18.24 17.5191 18.24C16.6791 18.24 16.0458 18.48 15.6191 18.96C15.1925 19.4267 14.9058 20.0333 14.7591 20.78C14.6258 21.5267 14.5591 22.44 14.5591 23.52C14.5591 24.64 14.6258 25.58 14.7591 26.34C14.8925 27.1 15.1725 27.7133 15.5991 28.18C16.0391 28.6467 16.6791 28.88 17.5191 28.88C18.3591 28.88 18.9925 28.6467 19.4191 28.18C19.8591 27.7133 20.1458 27.1 20.2791 26.34C20.4125 25.58 20.4791 24.64 20.4791 23.52ZM24.8516 27.96V26.24L31.5716 16.6H34.3316V25.98H36.1916V27.96H34.3316V31H32.0916V27.96H24.8516ZM32.1916 18.92L27.4716 25.98H32.1916V18.92Z" fill="white"/>
<defs>
<linearGradient id="paint0_linear_684_285" x1="-2.04696" y1="41.4445" x2="45.5642" y2="16.737" gradientUnits="userSpaceOnUse">
<stop offset="0.04" stop-color="#FBB040"/>
<stop offset="0.13" stop-color="#FBB040"/>
<stop offset="0.7" stop-color="#FFF200"/>
</linearGradient>
</defs>
</svg>
