<svg width="20" height="28" viewBox="0 0 20 28" fill="none" xmlns="http://www.w3.org/2000/svg">
<g clip-path="url(#clip0_80_45)">
<path d="M11.1333 14L19.8 5.33333C19.9333 5.2 20 5.02222 20 4.8C20 4.57778 19.9222 4.38889 19.7667 4.23333C19.6111 4.07778 19.4222 4 19.2 4C18.9778 4 18.8 4.06667 18.6667 4.2L10 12.8667L1.33333 4.2C1.2 4.06667 1.02222 4 0.8 4C0.577778 4 0.388889 4.07778 0.233333 4.23333C0.0777778 4.38889 0 4.57778 0 4.8C0 5.02222 0.0666667 5.2 0.2 5.33333L8.86667 14L0.2 22.6667C0.0666667 22.8 0 22.9778 0 23.2C0 23.4222 0.0777778 23.6111 0.233333 23.7667C0.388889 23.9222 0.577778 24 0.8 24C1.02222 24 1.2 23.9333 1.33333 23.8L10 15.1333L18.6667 23.8C18.8 23.9333 18.9778 24 19.2 24C19.4222 24 19.6111 23.9222 19.7667 23.7667C19.9222 23.6111 20 23.4222 20 23.2C20 22.9778 19.9333 22.8 19.8 22.6667L11.1333 14Z" fill="#1B1E31"/>
</g>
<defs>
<clipPath id="clip0_80_45">
<rect width="20" height="28" fill="white" transform="matrix(1 0 0 -1 0 28)"/>
</clipPath>
</defs>
</svg>
