<svg width="90" height="92" viewBox="0 0 90 92" fill="none" xmlns="http://www.w3.org/2000/svg">
<path d="M65.1182 35.5152C67.4509 39.8307 68.2673 44.4378 67.5675 49.3365C66.8677 54.3518 64.71 58.6673 61.0943 62.2829C56.6622 66.7151 51.297 68.9311 44.9987 68.9311C38.7004 68.9311 33.3352 66.7151 28.9031 62.2829C24.471 57.8508 22.2549 52.4856 22.2549 46.1873C22.2549 39.8891 24.471 34.5238 28.9031 30.0917C32.5188 26.5927 36.8343 24.4933 41.8496 23.7934C46.7482 23.0936 51.4136 23.9101 55.8457 26.2428C56.7788 26.826 56.9829 27.6132 56.4581 28.6046C55.9332 29.596 55.1459 29.8001 54.0962 29.217C50.3639 27.2342 46.3983 26.5635 42.1995 27.205C38.0006 27.8465 34.3849 29.6835 31.3524 32.716C27.6201 36.4483 25.754 40.9679 25.754 46.2748C25.754 51.5817 27.6201 56.1013 31.3524 59.8336C35.0847 63.5659 39.6335 65.4321 44.9987 65.4321C50.3639 65.4321 54.9127 63.5659 58.645 59.8336C61.5608 56.9177 63.3395 53.3312 63.981 49.074C64.6225 44.8169 63.9519 40.8221 61.9691 37.0898C61.3859 36.0401 61.6192 35.2528 62.6689 34.728C63.7186 34.2031 64.535 34.4655 65.1182 35.5152ZM58.645 30.0917C58.645 30.0917 58.8491 29.8876 59.2573 29.4794C59.6655 29.0712 60.2779 29.2753 61.0943 30.0917C61.9108 30.9082 61.9108 31.7246 61.0943 32.5411V32.716C60.7444 32.9493 60.3362 33.0659 59.8696 33.0659C59.4031 33.0659 58.9949 32.9493 58.645 32.716C57.8285 31.7829 57.8285 30.9082 58.645 30.0917ZM86.2874 46.1873C86.2874 45.021 86.8706 44.4378 88.0369 44.4378C89.2033 44.4378 89.7865 45.021 89.7865 46.1873C89.7865 58.5506 85.4127 69.1061 76.6651 77.8537C67.9174 86.6013 57.362 90.9751 44.9987 90.9751C32.6354 90.9751 22.08 86.6013 13.3324 77.8537C4.58474 69.1061 0.210938 58.5506 0.210938 46.1873C0.210938 33.824 4.58474 23.2686 13.3324 14.521C22.08 5.77337 32.6354 1.39957 44.9987 1.39957C56.6622 1.39957 66.8094 5.36515 75.4404 13.2963L77.3649 11.3718C77.948 10.7887 78.5895 10.6429 79.2893 10.9345C79.9891 11.2261 80.3391 11.7801 80.3391 12.5965V24.8432C80.3391 26.0095 79.7559 26.5927 78.5895 26.5927H67.3926C72.2912 32.1912 74.7406 38.7227 74.7406 46.1873C74.7406 54.3518 71.8247 61.3499 65.993 67.1816C60.1612 73.0133 53.1631 75.9292 44.9987 75.9292C36.8343 75.9292 29.8362 73.0133 24.0044 67.1816C18.1727 61.3499 15.2568 54.3518 15.2568 46.1873C15.2568 38.0229 18.1727 31.0248 24.0044 25.1931C29.8362 19.3613 36.8343 16.4455 44.9987 16.4455C52.58 16.4455 59.1698 18.9531 64.7683 23.9684C64.8849 23.8518 64.9433 23.7351 64.9433 23.6185L67.7425 20.9942C61.0943 14.9292 53.2506 12.0133 44.2114 12.2466C35.1722 12.4799 27.4452 15.804 21.0303 22.2189C16.3649 26.8843 13.274 32.4827 11.7578 39.0143C11.5245 40.064 10.8539 40.4722 9.74583 40.239C8.6378 40.0057 8.20042 39.3059 8.43369 38.1395C9.94994 31.0248 13.3324 24.9015 18.5809 19.7695C25.8123 12.4216 34.6182 8.74756 44.9987 8.74756C55.3792 8.74756 64.1851 12.4216 71.4165 19.7695C71.7664 20.1195 71.9413 20.5277 71.9413 20.9942C71.9413 21.4608 71.7664 21.869 71.4165 22.2189L70.5417 23.0936H76.84V16.7954L76.6651 16.9703C75.8486 17.7868 75.0322 17.7868 74.2157 16.9703C66.1679 8.92252 56.4289 4.89861 44.9987 4.89861C33.5685 4.89861 23.8295 8.92252 15.7817 16.9703C7.73388 25.0181 3.70998 34.7571 3.70998 46.1873C3.70998 57.6175 7.73388 67.3565 15.7817 75.4044C23.8295 83.4522 33.5685 87.4761 44.9987 87.4761C56.4289 87.4761 66.1679 83.4522 74.2157 75.4044C82.2635 67.3565 86.2874 57.6175 86.2874 46.1873ZM63.2728 65C63.2728 65 66.9672 62 68.9672 58C70.9672 54.5 71.2415 53.4187 71.2415 46.1873C71.2415 38.956 68.6756 32.7743 63.5436 27.6424C58.4117 22.5105 52.2301 19.9445 44.9987 19.9445C37.7673 19.9445 31.5857 22.5105 26.4538 27.6424C21.3218 32.7743 18.7559 38.956 18.7559 46.1873C18.7559 53.4187 21.3218 59.6003 26.4538 64.7323C31.5857 69.8642 37.7673 72.4302 44.9987 72.4302C52.2301 72.4302 58.1409 70.1319 63.2728 65ZM11.058 46.1873V46.3623C11.058 47.5286 10.4748 48.1118 9.30845 48.1118C8.1421 48.1118 7.55893 47.5286 7.55893 46.3623V46.1873C7.55893 45.021 8.1421 44.4378 9.30845 44.4378C10.4748 44.4378 11.058 45.021 11.058 46.1873ZM78.9394 46.1873C78.9394 45.021 79.5226 44.4378 80.689 44.4378C81.8553 44.4378 82.4385 45.021 82.4385 46.1873C82.4385 56.5678 78.7936 65.4029 71.504 72.6926C64.2143 79.9823 55.3792 83.6271 44.9987 83.6271C34.6182 83.6271 25.8123 79.9531 18.5809 72.6051C13.449 67.4732 10.0666 61.4082 8.43369 54.4101C8.20042 53.2437 8.6378 52.5439 9.74583 52.3107C10.8539 52.0774 11.5828 52.4856 11.9327 53.5353C13.3324 59.9502 16.3649 65.4904 21.0303 70.1558C27.6784 76.804 35.6679 80.1281 44.9987 80.1281C54.3295 80.1281 62.319 76.804 68.9672 70.1558C75.6153 63.5076 78.9394 55.5181 78.9394 46.1873Z" fill="url(#paint0_linear_80_165)"/>
<defs>
<linearGradient id="paint0_linear_80_165" x1="-3.60902" y1="13.6332" x2="85.2409" y2="59.7412" gradientUnits="userSpaceOnUse">
<stop offset="0.04" stop-color="#FBB040"/>
<stop offset="0.13" stop-color="#FBB040"/>
<stop offset="0.7" stop-color="#FFF200"/>
</linearGradient>
</defs>
</svg>
