<svg width="90" height="92" viewBox="0 0 90 92" fill="none" xmlns="http://www.w3.org/2000/svg">
<path d="M89.2635 26.043C90.0799 26.8595 90.0799 27.6759 89.2635 28.4924L84.3648 33.566C83.5484 34.3824 82.7319 34.3824 81.9155 33.566L78.2415 29.892L75.6172 32.3413L79.2912 36.0153C80.1077 36.8318 80.1077 37.6482 79.2912 38.4646L74.3925 43.3633C73.5761 44.1797 72.7597 44.1797 71.9432 43.3633L64.9451 36.5402L48.4996 52.9857C51.0656 57.7677 52.057 62.8413 51.4738 68.2065C50.8906 74.1549 48.4413 79.2868 44.1258 83.6023C39.1105 88.6176 33.0455 91.1252 25.9308 91.1252C25.8141 91.1252 25.6392 91.1252 25.4059 91.1252C18.1745 91.0086 12.0512 88.2677 7.0359 82.9025C2.37051 77.8872 0.0961283 71.9388 0.212763 65.0574C0.329398 58.1759 2.72041 52.2859 7.38581 47.3872C11.7013 43.0717 16.8916 40.5641 22.9566 39.8643C28.4384 39.1644 33.5703 40.1558 38.3524 42.8384L44.1258 37.065C44.9422 36.2486 45.7587 36.2486 46.5751 37.065C47.3916 37.8815 47.3916 38.6979 46.5751 39.5144L39.9269 46.1625C39.2271 46.8623 38.469 46.979 37.6526 46.5124C33.2204 43.7132 28.4092 42.6343 23.219 43.2758C18.0287 43.9173 13.6258 46.1042 10.0101 49.8365C5.81124 54.152 3.68265 59.2548 3.62433 65.1448C3.56602 71.0349 5.57797 76.1377 9.66019 80.4532C13.859 85.1186 19.1368 87.5096 25.4934 87.6262C31.85 87.7428 37.2443 85.5851 41.6765 81.153C45.4088 77.4207 47.5665 72.9885 48.1497 67.8566C48.7329 62.7247 47.6248 58.001 44.8256 53.6855C44.3591 52.869 44.4757 52.1109 45.1755 51.4111L63.7205 32.8662C64.5369 32.0497 65.3533 32.0497 66.1698 32.8662L73.1679 39.6893L75.6172 37.24L71.9432 33.566C71.1268 32.7495 71.1268 31.9331 71.9432 31.1166L77.0168 26.218C77.8333 25.2849 78.6497 25.2849 79.4662 26.218L83.1402 29.717L85.5895 27.2677L78.5914 20.4446C77.775 19.6281 77.775 18.7534 78.5914 17.8203L84.8897 11.697L79.6411 6.44839L56.0226 30.0669C55.2061 30.8834 54.3605 30.8834 53.4857 30.0669C52.611 29.2505 52.5818 28.434 53.3983 27.6176L78.4165 2.77439C78.6497 2.42448 79.0288 2.24953 79.5536 2.24953C80.0785 2.24953 80.5159 2.42448 80.8658 2.77439L88.5637 10.4723C89.3801 11.2887 89.3801 12.1052 88.5637 12.9216L82.4404 19.2199L89.2635 26.043ZM48.8495 32.1664C49.7826 31.3499 50.6574 31.3499 51.4738 32.1664C52.2902 32.9828 52.2902 33.7992 51.4738 34.6157L51.2988 34.7906C50.9489 35.0239 50.5407 35.1405 50.0742 35.1405C49.6076 35.1405 49.1994 35.0239 48.8495 34.7906C48.0331 33.8576 48.0331 32.9828 48.8495 32.1664ZM26.0182 46.1625C26.0182 46.1625 27.345 46.1625 29.9984 46.1625C32.6518 46.1625 35.8447 48.0287 39.577 51.761C43.3094 55.4933 45.1755 60.0129 45.1755 65.3198C45.1755 70.6267 43.3094 75.1754 39.577 78.9661C35.8447 82.7567 31.3251 84.652 26.0182 84.652C20.7113 84.652 16.1626 82.7567 12.372 78.9661C8.58132 75.1754 6.686 70.6267 6.686 65.3198C6.686 60.0129 8.58132 55.4933 12.372 51.761C16.1626 48.0287 20.7113 46.1625 26.0182 46.1625ZM25.9308 81.153C25.9308 81.153 27.0096 81.153 29.1674 81.153C31.3251 81.153 33.9494 79.6076 37.0402 76.5167C40.1311 73.4259 41.6765 69.6936 41.6765 65.3198C41.6765 60.946 40.1311 57.2428 37.0402 54.2103C33.9494 51.1778 30.2462 49.6616 25.9308 49.6616C21.6153 49.6616 17.9121 51.1778 14.8213 54.2103C11.7305 57.2428 10.185 60.946 10.185 65.3198C10.185 69.6936 11.7305 73.4259 14.8213 76.5167C17.9121 79.6076 21.6153 81.153 25.9308 81.153ZM41.3266 11.3471C42.4929 11.3471 43.0761 11.9302 43.0761 13.0966C43.0761 14.2629 42.4929 14.8461 41.3266 14.8461H1.96229C0.795938 14.8461 0.212763 14.2629 0.212763 13.0966C0.212763 11.9302 0.795938 11.3471 1.96229 11.3471H41.3266ZM47.2749 19.7448C48.4413 19.7448 49.0245 20.3279 49.0245 21.4943C49.0245 22.6606 48.4413 23.2438 47.2749 23.2438H22.6067C21.4403 23.2438 20.8571 22.6606 20.8571 21.4943C20.8571 20.3279 21.4403 19.7448 22.6067 19.7448H47.2749ZM24.7061 28.1425C25.8724 28.1425 26.4556 28.7256 26.4556 29.892C26.4556 31.0583 25.8724 31.6415 24.7061 31.6415H11.4097C10.2434 31.6415 9.66019 31.0583 9.66019 29.892C9.66019 28.7256 10.2434 28.1425 11.4097 28.1425H24.7061ZM88.0388 78.5287C89.2052 78.5287 89.7884 79.1119 89.7884 80.2782C89.7884 81.4446 89.2052 82.0277 88.0388 82.0277H62.4958C61.3294 82.0277 60.7463 81.4446 60.7463 80.2782C60.7463 79.1119 61.3294 78.5287 62.4958 78.5287H88.0388ZM55.0603 78.5287C55.0603 78.5287 55.1915 78.5287 55.454 78.5287C55.7164 78.5287 55.9934 78.7036 56.285 79.0535C56.5766 79.4034 56.7224 79.8117 56.7224 80.2782C56.7224 80.7447 56.5766 81.153 56.285 81.5029C55.9934 81.8528 55.5852 82.0277 55.0603 82.0277C54.5355 82.0277 54.0981 81.8528 53.7482 81.5029C53.3983 81.153 53.2233 80.7447 53.2233 80.2782C53.2233 79.8117 53.3983 79.4034 53.7482 79.0535C54.0981 78.7036 54.5355 78.5287 55.0603 78.5287ZM88.0388 70.131C89.2052 70.131 89.7884 70.7142 89.7884 71.8805C89.7884 73.0469 89.2052 73.63 88.0388 73.63H77.8916C76.7253 73.63 76.1421 73.0469 76.1421 71.8805C76.1421 70.7142 76.7253 70.131 77.8916 70.131H88.0388ZM74.0426 61.7333C75.209 61.7333 75.7922 62.3165 75.7922 63.4828C75.7922 64.6491 75.209 65.2323 74.0426 65.2323H60.7463C59.5799 65.2323 58.9967 64.6491 58.9967 63.4828C58.9967 62.3165 59.5799 61.7333 60.7463 61.7333H74.0426Z" fill="url(#paint0_linear_80_157)"/>
<defs>
<linearGradient id="paint0_linear_80_157" x1="-3.61537" y1="14.3876" x2="84.9892" y2="60.7778" gradientUnits="userSpaceOnUse">
<stop offset="0.04" stop-color="#FBB040"/>
<stop offset="0.13" stop-color="#FBB040"/>
<stop offset="0.7" stop-color="#FFF200"/>
</linearGradient>
</defs>
</svg>
