<svg width="52" height="52" viewBox="0 0 52 52" fill="none" xmlns="http://www.w3.org/2000/svg">
<path d="M38.7043 0C38.4888 0 38.2821 0.0856692 38.1297 0.238052C37.9774 0.390435 37.8918 0.597049 37.8918 0.812551V2.43121C37.316 2.60498 36.7583 2.83351 36.2261 3.11372L35.0886 1.97613C34.9363 1.8243 34.73 1.73907 34.515 1.73907C34.2999 1.73907 34.0937 1.8243 33.9414 1.97613L31.2244 4.69012C31.1487 4.7656 31.0887 4.85525 31.0477 4.95396C31.0068 5.05268 30.9857 5.15854 30.9857 5.26541C30.9857 5.37229 31.0068 5.47805 31.0477 5.57677C31.0887 5.67548 31.1487 5.76513 31.2244 5.84061L32.3667 6.98316C32.0845 7.51346 31.8538 8.06958 31.6777 8.64397H30.0625C29.847 8.64397 29.6403 8.72964 29.488 8.88202C29.3356 9.0344 29.25 9.24102 29.25 9.45652V13.2999C29.25 13.5154 29.3356 13.722 29.488 13.8744C29.6403 14.0268 29.847 14.1124 30.0625 14.1124H31.6777C31.8533 14.6877 32.0791 15.2418 32.3602 15.7748L31.2228 16.9141C31.0704 17.0665 30.9849 17.2731 30.9849 17.4886C30.9849 17.7041 31.0704 17.9107 31.2228 18.0631L33.9414 20.7769C34.0937 20.9292 34.3004 21.0149 34.5158 21.0149C34.7313 21.0149 34.9379 20.9292 35.0902 20.7769L36.2278 19.6394C36.7624 19.9205 37.3165 20.1513 37.8918 20.3268V21.939C37.8918 22.1545 37.9774 22.3611 38.1297 22.5135C38.2821 22.6659 38.4888 22.7515 38.7043 22.7515H42.5457C42.7612 22.7515 42.9679 22.6659 43.1203 22.5135C43.2726 22.3611 43.3582 22.1545 43.3582 21.939V20.3236C43.934 20.1498 44.4917 19.9212 45.0239 19.641L46.1614 20.7787C46.3137 20.9305 46.52 21.0157 46.735 21.0157C46.9501 21.0157 47.1563 20.9305 47.3086 20.7787L50.0256 18.0647C50.1013 17.9892 50.1613 17.8996 50.2023 17.8008C50.2432 17.7021 50.2643 17.5963 50.2643 17.4894C50.2643 17.3825 50.2432 17.2767 50.2023 17.1779C50.1613 17.0792 50.1013 16.9896 50.0256 16.9141L48.8833 15.7716C49.166 15.2402 49.3951 14.6877 49.5723 14.1124H51.1875C51.403 14.1124 51.6096 14.0268 51.762 13.8744C51.9144 13.722 52 13.5154 52 13.2999V9.45652C52 9.24102 51.9144 9.0344 51.762 8.88202C51.6096 8.72964 51.403 8.64397 51.1875 8.64397H49.5723C49.3984 8.06874 49.1699 7.51142 48.8898 6.97979L50.0272 5.84061C50.1796 5.68823 50.2651 5.48167 50.2651 5.26621C50.2651 5.05075 50.1796 4.84408 50.0272 4.69171L47.3086 1.97782C47.1563 1.82549 46.9496 1.73986 46.7342 1.73986C46.5187 1.73986 46.3121 1.82549 46.1598 1.97782L45.0222 3.11699C44.4909 2.83458 43.9337 2.60383 43.3582 2.42793V0.812551C43.3582 0.597049 43.2726 0.390435 43.1203 0.238052C42.9679 0.0856692 42.7612 0 42.5457 0H38.7043ZM39.5168 1.6251H41.7332V2.9577C41.7326 3.14204 41.7947 3.32114 41.9093 3.46554C42.0238 3.60995 42.1841 3.7111 42.3638 3.7524C43.2218 3.94741 44.044 4.28706 44.7882 4.75509C44.9442 4.85317 45.1289 4.89528 45.3119 4.87461C45.495 4.85394 45.6656 4.7717 45.7957 4.64132L46.735 3.70201L48.3031 5.267L47.3655 6.20314C47.235 6.33281 47.1524 6.50286 47.1311 6.68559C47.1099 6.86833 47.1513 7.05275 47.2485 7.20891C47.7149 7.95646 48.0529 8.77562 48.2446 9.63367C48.2853 9.81393 48.3861 9.97492 48.5306 10.0901C48.6751 10.2054 48.8545 10.2679 49.0392 10.2675H50.375V12.4873H49.0425C48.8579 12.4868 48.6787 12.5492 48.5343 12.6641C48.3899 12.779 48.2888 12.9396 48.2479 13.1195C48.0533 13.9772 47.7155 14.7958 47.2485 15.5409C47.1502 15.6967 47.1078 15.8812 47.1282 16.0643C47.1485 16.2473 47.2305 16.4181 47.3606 16.5485L48.3031 17.491L46.735 19.0544L45.799 18.1182C45.6688 17.9879 45.4982 17.9056 45.3152 17.885C45.1321 17.8643 44.9475 17.9065 44.7915 18.0046C44.044 18.471 43.2266 18.8074 42.367 19.0008C42.1876 19.0413 42.0272 19.1414 41.9121 19.2849C41.7969 19.4284 41.7339 19.6066 41.7332 19.7906V21.128H39.5168V19.7953C39.5166 19.6115 39.4542 19.4334 39.3397 19.2897C39.2252 19.1459 39.0654 19.0452 38.8862 19.004C38.0275 18.8083 37.2079 18.4692 36.4618 18.0012C36.3058 17.9031 36.1211 17.8611 35.9381 17.8818C35.755 17.9024 35.5844 17.9847 35.4543 18.1151L34.515 19.0544L32.9469 17.4894L33.8845 16.5501C34.0142 16.4206 34.0963 16.251 34.1176 16.069C34.1388 15.887 34.0979 15.7033 34.0015 15.5475C33.5354 14.7999 33.1987 13.9791 33.0054 13.1195C32.9644 12.9396 32.8634 12.779 32.719 12.6641C32.5745 12.5492 32.3953 12.4868 32.2108 12.4873H30.875V10.2691H32.2075C32.3921 10.2696 32.5713 10.2072 32.7157 10.0923C32.8601 9.97742 32.9612 9.8168 33.0021 9.63684C33.1971 8.77879 33.5335 7.96138 34.0015 7.21546C34.0998 7.05967 34.1422 6.87521 34.1218 6.69214C34.1015 6.50907 34.0195 6.33827 33.8894 6.2079L32.9469 5.26541L34.515 3.70201L35.451 4.63805C35.5812 4.76843 35.7518 4.85077 35.9348 4.87144C36.1179 4.89211 36.3025 4.84989 36.4585 4.75182C37.206 4.28541 38.0234 3.94906 38.883 3.75567C39.0632 3.71502 39.2243 3.61408 39.3395 3.46961C39.4547 3.32514 39.5172 3.14576 39.5168 2.96097V1.6251ZM40.625 8.12561C38.8391 8.12561 37.375 9.58983 37.375 11.3758C37.375 13.1618 38.8391 14.626 40.625 14.626C42.4109 14.626 43.875 13.1618 43.875 11.3758C43.875 9.58983 42.4109 8.12561 40.625 8.12561ZM40.625 9.75071C41.5317 9.75071 42.25 10.469 42.25 11.3758C42.25 12.2826 41.5317 13.0009 40.625 13.0009C39.7183 13.0009 39 12.2826 39 11.3758C39 10.469 39.7183 9.75071 40.625 9.75071ZM14.7745 16.2511C14.559 16.2511 14.3523 16.3366 14.2 16.489C14.0476 16.6414 13.962 16.8482 13.962 17.0637V20.005C12.8051 20.3215 11.6913 20.7784 10.6454 21.3653L8.57837 19.2948C8.42601 19.1425 8.21938 19.057 8.00394 19.057C7.78849 19.057 7.58187 19.1425 7.4295 19.2948L3.04363 23.6843C2.8913 23.8367 2.80574 24.0433 2.80574 24.2588C2.80574 24.4743 2.8913 24.6809 3.04363 24.8333L5.1155 26.9069C4.52604 27.9494 4.06601 29.0599 3.74563 30.2139H0.8125C0.597012 30.2139 0.390349 30.2995 0.237976 30.4519C0.0856024 30.6043 0 30.8109 0 31.0264L0 37.231C0 37.4466 0.0856024 37.6534 0.237976 37.8057C0.390349 37.9581 0.597012 38.0436 0.8125 38.0436H3.75213C4.069 39.2007 4.52562 40.3091 5.11225 41.3557L3.04363 43.4244C2.8913 43.5767 2.80574 43.7834 2.80574 43.9989C2.80574 44.2143 2.8913 44.421 3.04363 44.5734L7.43112 48.9611C7.58342 49.1129 7.7897 49.1981 8.00475 49.1981C8.2198 49.1981 8.42607 49.1129 8.57837 48.9611L10.6519 46.8843C11.6953 47.4744 12.8069 47.935 13.962 48.2558V51.1875C13.962 51.403 14.0476 51.6098 14.2 51.7621C14.3523 51.9145 14.559 52 14.7745 52H20.9755C21.191 52 21.3977 51.9145 21.55 51.7621C21.7024 51.6098 21.788 51.403 21.788 51.1875V48.2493C22.9442 47.9331 24.0575 47.477 25.103 46.8908L27.1716 48.9595C27.324 49.1118 27.5306 49.1973 27.7461 49.1973C27.9615 49.1973 28.1681 49.1118 28.3205 48.9595L32.7064 44.5718C32.8582 44.4195 32.9435 44.2131 32.9435 43.9981C32.9435 43.783 32.8582 43.5767 32.7064 43.4244L30.6345 41.3523C31.2241 40.3093 31.6841 39.1982 32.0044 38.0436H34.9375C35.153 38.0436 35.3596 37.9581 35.512 37.8057C35.6644 37.6534 35.75 37.4466 35.75 37.231V31.0264C35.75 30.8109 35.6644 30.6043 35.512 30.4519C35.3596 30.2995 35.153 30.2139 34.9375 30.2139H31.9979C31.6815 29.0577 31.2253 27.9445 30.6394 26.8988L32.7064 24.8349C32.782 24.7594 32.8421 24.6698 32.883 24.571C32.924 24.4723 32.9451 24.3665 32.9451 24.2596C32.9451 24.1527 32.924 24.0469 32.883 23.9481C32.8421 23.8494 32.782 23.7598 32.7064 23.6843L28.3189 19.2966C28.1666 19.1448 27.9603 19.0593 27.7452 19.0593C27.5302 19.0593 27.3239 19.1448 27.1716 19.2966L25.0981 21.37C24.0546 20.7804 22.943 20.3205 21.788 20.0002V17.0637C21.788 16.8482 21.7024 16.6414 21.55 16.489C21.3977 16.3366 21.191 16.2511 20.9755 16.2511H14.7745ZM15.587 17.8762H20.163V20.5299C20.1629 20.7144 20.2256 20.8934 20.3408 21.0376C20.456 21.1817 20.6168 21.2824 20.7968 21.323C22.2387 21.6519 23.6149 22.2217 24.8674 23.0082C25.0232 23.1059 25.2075 23.1479 25.3902 23.1273C25.5729 23.1066 25.7432 23.0245 25.8732 22.8946L27.7452 21.0191L30.9823 24.2596L29.1167 26.1267C28.9876 26.2566 28.906 26.4264 28.8854 26.6084C28.8647 26.7904 28.9062 26.974 29.003 27.1295C29.7845 28.3846 30.3487 29.7624 30.6719 31.2052C30.7125 31.3851 30.8131 31.546 30.9572 31.6612C31.1013 31.7764 31.2804 31.8391 31.4649 31.839H34.125V36.4203H31.4714C31.2873 36.42 31.1086 36.4821 30.9646 36.5966C30.8205 36.7112 30.7196 36.8713 30.6784 37.0507C30.3505 38.4921 29.7819 39.8678 28.9965 41.12C28.8984 41.276 28.8563 41.4607 28.8769 41.6437C28.8976 41.8268 28.9799 41.9974 29.1102 42.1276L30.9823 43.9997L27.7452 47.237L25.8797 45.3697C25.7496 45.2393 25.579 45.157 25.3959 45.1364C25.2129 45.1157 25.0282 45.1579 24.8722 45.256C23.6194 46.0393 22.2397 46.6047 20.7984 46.9297C20.6184 46.9703 20.4576 47.071 20.3424 47.2152C20.2272 47.3593 20.1645 47.5383 20.1646 47.7228V50.3799H15.5854V47.726C15.5847 47.542 15.5217 47.3638 15.4066 47.2203C15.2915 47.0768 15.1311 46.9767 14.9516 46.9362C13.5097 46.6074 12.1335 46.0377 10.881 45.251C10.7252 45.1534 10.5409 45.1113 10.3582 45.132C10.1755 45.1527 10.0052 45.2347 9.87512 45.3647L8.00313 47.237L4.76613 43.9997L6.63162 42.1323C6.7616 42.0023 6.84363 41.832 6.86429 41.6493C6.88495 41.4666 6.84303 41.2824 6.74538 41.1266C5.96393 39.8726 5.39972 38.4956 5.0765 37.0539C5.03591 36.8739 4.93528 36.7132 4.79115 36.598C4.64703 36.4828 4.468 36.4202 4.2835 36.4203H1.625V31.839H4.27863C4.4629 31.8391 4.64176 31.7767 4.78585 31.6618C4.92995 31.547 5.03072 31.3866 5.07163 31.2069C5.39969 29.7662 5.96829 28.3909 6.7535 27.1392C6.85157 26.9833 6.89373 26.7986 6.87306 26.6155C6.85239 26.4324 6.77012 26.2618 6.63975 26.1317L4.76775 24.2596L8.00475 21.0191L9.87025 22.888C10.0004 23.0184 10.171 23.1006 10.3541 23.1213C10.5371 23.142 10.7218 23.0998 10.8777 23.0017C12.1321 22.2192 13.5093 21.654 14.9516 21.3296C15.1316 21.289 15.2924 21.1882 15.4076 21.0441C15.5228 20.9 15.5855 20.721 15.5854 20.5365V17.8762H15.587ZM17.875 24.3766C12.4995 24.3766 8.125 28.7514 8.125 34.1272C8.125 39.5031 12.4995 43.8779 17.875 43.8779C23.2505 43.8779 27.625 39.5031 27.625 34.1272C27.625 28.7514 23.2505 24.3766 17.875 24.3766ZM17.875 26.0017C22.3714 26.0017 26 29.6306 26 34.1272C26 38.6239 22.3714 42.2528 17.875 42.2528C13.3786 42.2528 9.75 38.6239 9.75 34.1272C9.75 29.6306 13.3786 26.0017 17.875 26.0017ZM13.8564 27.6268V27.6431H13.819V29.2682H15.4862C17.004 29.2682 17.7694 29.9865 18.0456 30.877H13.8564V32.5021H18.0473C17.771 33.396 17.0072 34.1142 15.4879 34.1142H13.8174V35.7393H14.3L19.2563 40.6277L20.4002 39.4737L16.5084 35.6319C18.2715 35.263 19.4025 33.9501 19.7145 32.5021H21.9326V30.877H19.7113C19.5845 30.292 19.3115 29.7395 18.9312 29.2519H21.9294V27.6268H13.8564Z" fill="url(#paint0_linear_80_310)"/>
<defs>
<linearGradient id="paint0_linear_80_310" x1="6.6675e-09" y1="25.5192" x2="52" y2="26.4807" gradientUnits="userSpaceOnUse">
<stop stop-color="#FBB040"/>
<stop offset="1" stop-color="#FFF200"/>
</linearGradient>
</defs>
</svg>
